<svg width="109" height="74" viewBox="0 0 109 74" fill="none" xmlns="http://www.w3.org/2000/svg">
<path d="M106.681 0H2.31903C2.30324 0 2.28767 0.0015517 2.27209 0.00177351L2.27232 0.00244027C1.01348 0.0275049 0 1.05005 0 2.3126V71.6874C0 72.9655 1.03861 74 2.31903 74H106.681C107.962 74 109 72.9655 109 71.6874V2.3126C109 1.0343 107.962 0 106.681 0ZM101.082 4.62519L70.2552 35.3637C70.2547 35.3641 70.2543 35.3644 70.2538 35.3648L54.5 51.0737L38.7462 35.3648C38.7453 35.3639 38.7444 35.3633 38.7433 35.3621L7.91785 4.62519H101.082ZM4.63828 7.8949L33.8269 36.9998L4.63828 66.1049V7.8949ZM7.91785 69.3748L37.1065 40.2697L52.8606 55.9786C53.6678 56.7835 54.93 57.185 56.1401 55.9786L71.894 40.2699L101.083 69.3748H7.91785ZM104.362 66.1044L75.1733 36.9998L104.362 7.89513V66.1044Z" fill="black"/>
</svg>
